<?xml version="1.0" encoding="UTF-8" standalone="no" ?>
<!DOCTYPE svg PUBLIC "-//W3C//DTD SVG 1.1//EN" "http://www.w3.org/Graphics/SVG/1.1/DTD/svg11.dtd">
<svg xmlns="http://www.w3.org/2000/svg" xmlns:xlink="http://www.w3.org/1999/xlink" version="1.1" width="96" height="96" viewBox="0 0 500 500" xml:space="preserve">
<desc>Created with Fabric.js 4.6.0</desc>
<defs>
</defs>
<g transform="matrix(1.06 0 0 1.06 250 250)" id="2KEcMkC99TX_UkerT9Doe"  >
<g style="" vector-effect="non-scaling-stroke"   >
		<g transform="matrix(1.6 0 0 1.6 -86.63 -79.72)" id="Jwe24lNpjYMPEZWcnhyfK"  >
<path style="stroke: rgb(39,13,195); stroke-width: 0; stroke-dasharray: none; stroke-linecap: butt; stroke-dashoffset: 0; stroke-linejoin: miter; stroke-miterlimit: 4; fill: rgb(57,57,57); fill-rule: nonzero; opacity: 1;" vector-effect="non-scaling-stroke"  transform=" translate(0, 0)" d="M 0 -74.71264 C 41.24138 -74.71264 74.71264 -41.24137999999999 74.71264 0 C 74.71264 41.24138 41.24137999999999 74.71264 0 74.71264 C -41.24138 74.71264 -74.71264 41.24137999999999 -74.71264 0 C -74.71264 -41.24138 -41.24137999999999 -74.71264 0 -74.71264 z" stroke-linecap="round" />
</g>
		<g transform="matrix(1.02 0 0 1.02 129.96 11.87)" id="usZMRdhIO-3BoP5BN8l8D"  >
<path style="stroke: rgb(39,13,195); stroke-width: 0; stroke-dasharray: none; stroke-linecap: butt; stroke-dashoffset: 0; stroke-linejoin: miter; stroke-miterlimit: 4; fill: rgb(57,57,57); fill-rule: nonzero; opacity: 1;" vector-effect="non-scaling-stroke"  transform=" translate(0, 0)" d="M 0 -74.71264 C 41.24138 -74.71264 74.71264 -41.24137999999999 74.71264 0 C 74.71264 41.24138 41.24137999999999 74.71264 0 74.71264 C -41.24138 74.71264 -74.71264 41.24137999999999 -74.71264 0 C -74.71264 -41.24138 -41.24137999999999 -74.71264 0 -74.71264 z" stroke-linecap="round" />
</g>
		<g transform="matrix(0.74 0 0 0.74 -1.79 143.62)" id="ZRuUu4D0Xlypttr3KcnSU"  >
<path style="stroke: rgb(39,13,195); stroke-width: 0; stroke-dasharray: none; stroke-linecap: butt; stroke-dashoffset: 0; stroke-linejoin: miter; stroke-miterlimit: 4; fill: rgb(57,57,57); fill-rule: nonzero; opacity: 1;" vector-effect="non-scaling-stroke"  transform=" translate(0, 0)" d="M 0 -74.71264 C 41.24138 -74.71264 74.71264 -41.24137999999999 74.71264 0 C 74.71264 41.24138 41.24137999999999 74.71264 0 74.71264 C -41.24138 74.71264 -74.71264 41.24137999999999 -74.71264 0 C -74.71264 -41.24138 -41.24137999999999 -74.71264 0 -74.71264 z" stroke-linecap="round" />
</g>
</g>
</g>
</svg>