<?xml version="1.0" encoding="UTF-8" standalone="no" ?>
<!DOCTYPE svg PUBLIC "-//W3C//DTD SVG 1.1//EN" "http://www.w3.org/Graphics/SVG/1.1/DTD/svg11.dtd">
<svg xmlns="http://www.w3.org/2000/svg" xmlns:xlink="http://www.w3.org/1999/xlink" version="1.1" width="500" height="500" viewBox="0 0 500 500" xml:space="preserve">
<desc>Created with Fabric.js 5.3.0</desc>
<defs>
</defs>
<g transform="matrix(3.2329630308 0 0 -0.3608991618 250 269.0799152485)" id="_Kl_hkO_GNDdkpyt9i_hb"  >
<path style="stroke: rgb(56,56,56); stroke-width: 8; stroke-dasharray: none; stroke-linecap: butt; stroke-dashoffset: 0; stroke-linejoin: miter; stroke-miterlimit: 4; fill: none; fill-rule: nonzero; opacity: 1;" vector-effect="non-scaling-stroke"  transform=" translate(0, 0)" d="M 0 -70 C 38.64 -70 70 -38.64 70 0 C 70 38.64 38.64 70 0 70 C -38.64 70 -70 38.64 -70 0 C -70 -38.64 -38.64 -70 0 -70 z" stroke-linecap="round" />
</g>
<g transform="matrix(2.9896449063 0 0 -0.3337372962 250 229.018754165)" id="lUrdXlFCTLpw9OLAf2jVJ"  >
<path style="stroke: rgb(56,56,56); stroke-width: 8; stroke-dasharray: none; stroke-linecap: butt; stroke-dashoffset: 0; stroke-linejoin: miter; stroke-miterlimit: 4; fill: rgb(56,56,56); fill-rule: nonzero; opacity: 1;" vector-effect="non-scaling-stroke"  transform=" translate(0, 0)" d="M 0 -70 C 38.64 -70 70 -38.64 70 0 C 70 38.64 38.64 70 0 70 C -38.64 70 -70 38.64 -70 0 C -70 -38.64 -38.64 -70 0 -70 z" stroke-linecap="round" />
</g>
<g transform="matrix(1 0 0 1 32.8974256728 249.2036971469)" id="h1I7d5qc9CHRsR5BmAtzI"  >
<path style="stroke: rgb(56,56,56); stroke-width: 8; stroke-dasharray: none; stroke-linecap: butt; stroke-dashoffset: 0; stroke-linejoin: miter; stroke-miterlimit: 4; fill: rgb(255,255,255); fill-opacity: 0; fill-rule: nonzero; opacity: 1;" vector-effect="non-scaling-stroke"  transform=" translate(0, 0)" d="M 9.20484 -22.6104 C -7.045159999999999 16.1396 -4.602419999999999 11.305190000000003 -9.20484 22.610390000000002" stroke-linecap="round" />
</g>
<g transform="matrix(-1 0 0 1 467.102572156 249.2036968302)" id="0NSrFj9ivAYIFjyQWw9dV"  >
<path style="stroke: rgb(56,56,56); stroke-width: 8; stroke-dasharray: none; stroke-linecap: butt; stroke-dashoffset: 0; stroke-linejoin: miter; stroke-miterlimit: 4; fill: rgb(255,255,255); fill-opacity: 0; fill-rule: nonzero; opacity: 1;" vector-effect="non-scaling-stroke"  transform=" translate(0, 0.000005)" d="M 9.20484 -22.6104 C -7.045159999999999 16.1396 -4.602419999999999 11.305190000000003 -9.20484 22.610390000000002" stroke-linecap="round" />
</g>
<g transform="matrix(0.228503834 0.228503834 -0.2247726402 0.2247726402 127.5120168552 249.2036968302)" id="9BPxscSCvN498buu2C_VJ"  >
<path style="stroke: rgb(56,56,56); stroke-width: 8; stroke-dasharray: none; stroke-linecap: butt; stroke-dashoffset: 0; stroke-linejoin: miter; stroke-miterlimit: 4; fill: none; fill-rule: nonzero; opacity: 1;" vector-effect="non-scaling-stroke"  transform=" translate(0, 0)" d="M -80.64516 -80.64516 L 80.64516 -80.64516 L 80.64516 80.64516 L -80.64516 80.64516 z" stroke-linecap="round" />
</g>
<g transform="matrix(0.228503834 0.228503834 -0.2247726403 0.2247726403 364.3132045484 249.2036962455)" id="g0-ys5NeSO3fss2GFrw3J"  >
<path style="stroke: rgb(56,56,56); stroke-width: 8; stroke-dasharray: none; stroke-linecap: butt; stroke-dashoffset: 0; stroke-linejoin: miter; stroke-miterlimit: 4; fill: none; fill-rule: nonzero; opacity: 1;" vector-effect="non-scaling-stroke"  transform=" translate(0, 0)" d="M -80.64516 -80.64516 L 80.64516 -80.64516 L 80.64516 80.64516 L -80.64516 80.64516 z" stroke-linecap="round" />
</g>
<g transform="matrix(0.228503834 0.228503834 -0.2247726403 0.2247726403 247.0753441735 256.1314485322)" id="AGxF-zfOLVAt9PvhC0-40"  >
<path style="stroke: rgb(56,56,56); stroke-width: 8; stroke-dasharray: none; stroke-linecap: butt; stroke-dashoffset: 0; stroke-linejoin: miter; stroke-miterlimit: 4; fill: none; fill-rule: nonzero; opacity: 1;" vector-effect="non-scaling-stroke"  transform=" translate(0, 0)" d="M -80.64516 -80.64516 L 80.64516 -80.64516 L 80.64516 80.64516 L -80.64516 80.64516 z" stroke-linecap="round" />
</g>
</svg>